<svg xmlns="http://www.w3.org/2000/svg" xmlns:xlink="http://www.w3.org/1999/xlink" width="132.113" height="31.734" viewBox="0 0 132.113 31.734"><defs><clipPath id="a"><path d="M0,0H132.113V31.734H0Z" fill="none"/></clipPath></defs><g clip-path="url(#a)"><path d="M207.094,15.278a18.243,18.243,0,0,1-1.189,6.714,15.179,15.179,0,0,1-3.332,5.186,14.714,14.714,0,0,1-5.117,3.335,17.67,17.67,0,0,1-6.554,1.175H183.66V.09h7.583a21.749,21.749,0,0,1,6.718.96,13.129,13.129,0,0,1,4.976,2.881,12.39,12.39,0,0,1,3.1,4.761,18.756,18.756,0,0,1,1.062,6.587m-4.35.047a13.948,13.948,0,0,0-.8-5.008,8.962,8.962,0,0,0-2.295-3.47A9.177,9.177,0,0,0,196,4.833a16.785,16.785,0,0,0-4.848-.647h-3.281V27.63h2.891a13.581,13.581,0,0,0,4.957-.866A10.439,10.439,0,0,0,201.9,20.41a14.506,14.506,0,0,0,.84-5.085" transform="translate(-116.861 -0.057)" fill="#333"/><path d="M0,0H4.252V31.635H0Z" transform="translate(96.441 0.098)" fill="#333"/><path d="M22.724,24.888l2.931,2.935a14.751,14.751,0,0,1-10.289,3.888A15.23,15.23,0,0,1,7.23,29.652a14.751,14.751,0,0,1-5.285-5.674A16.2,16.2,0,0,1,0,16.162,16.071,16.071,0,0,1,4.339,4.618,14.692,14.692,0,0,1,15.316.13a14.884,14.884,0,0,1,10.34,3.844L22.717,7a10.223,10.223,0,0,0-6.8-2.7A10.687,10.687,0,0,0,7.4,7.575a12.11,12.11,0,0,0-3.164,8.587,11.286,11.286,0,0,0,3.2,8.274,10.4,10.4,0,0,0,8.176,3.241A10.52,10.52,0,0,0,22.724,24.888Z" transform="translate(0 -0.083)" fill="#333"/><g transform="translate(29.698 0.029)"><path d="M104.464,7.158V1.815c.055.047-3.084-2.135-8.627-1.669a15.452,15.452,0,0,0-13.29,10.442,16.408,16.408,0,0,0-.753,7.463,15.315,15.315,0,0,0,3,7.354l.826.957,2.2,2.364-.02-8.347-.786.455a11.063,11.063,0,0,1-.746-7.758,11.383,11.383,0,0,1,9.6-8.576,10.9,10.9,0,0,1,8.6,2.658Z" transform="translate(-81.653 -0.081)" fill="#333"/><g transform="translate(7.945 2.902)"><path d="M103.5,29.624v5.347c-.055-.047,3.084,2.135,8.627,1.669A15.452,15.452,0,0,0,125.416,26.2a16.408,16.408,0,0,0,.753-7.463,15.315,15.315,0,0,0-3-7.354l-.826-.957-2.2-2.364.018,8.347.786-.455a11.062,11.062,0,0,1,.746,7.758,11.383,11.383,0,0,1-9.6,8.573,10.915,10.915,0,0,1-8.6-2.661Z" transform="translate(-103.498 -8.06)" fill="#333"/></g></g><path d="M299.249,31.643H294.79L304.763,0h4.961l9.962,31.643h-4.474l-1.757-5.619H303.043l1.109-3.837h8.107L307.24,6.252Z" transform="translate(-187.573)" fill="#333"/></g></svg>