<svg xmlns="http://www.w3.org/2000/svg" width="50" height="51.293" viewBox="0 0 50 51.293"><g transform="translate(-29.7 -0.029)"><path d="M118.74,11.588V2.9c.089.076-5.014-3.471-14.027-2.714A25.123,25.123,0,0,0,83.105,17.165,26.678,26.678,0,0,0,81.881,29.3a24.9,24.9,0,0,0,4.878,11.957L88.1,42.812l3.577,3.844-.033-13.571-1.278.74A17.987,17.987,0,0,1,89.155,21.21,18.508,18.508,0,0,1,104.764,7.266a17.722,17.722,0,0,1,13.983,4.322Z" transform="translate(-51.955 -0.052)" fill="#b3b3b3"/><path d="M103.5,43.12v8.694c-.089-.076,5.014,3.471,14.027,2.714a25.123,25.123,0,0,0,21.607-16.974,26.678,26.678,0,0,0,1.224-12.134,24.9,24.9,0,0,0-4.878-11.957l-1.343-1.556-3.577-3.844.029,13.571,1.278-.74a17.986,17.986,0,0,1,1.213,12.614,18.508,18.508,0,0,1-15.609,13.939,17.747,17.747,0,0,1-13.983-4.327Z" transform="translate(-60.887 -3.311)" fill="#b3b3b3"/></g></svg>