<svg width="1297" height="284" viewBox="0 0 1297 284" fill="none" xmlns="http://www.w3.org/2000/svg"><mask id="mask0_529_1355" style="mask-type:alpha" maskUnits="userSpaceOnUse" x="0" y="0" width="1297" height="284"><rect width="1297" height="284" fill="#D9D9D9"/></mask><g mask="url(#mask0_529_1355)"><path d="M1687.6 299.074C1683.23 293.973 1680.63 287.32 1674.33 282.391C1670.98 277.883 1668.66 273.958 1665.31 269.45C1651.17 253.543 1637.15 239.005 1622.12 223.874C1613.51 215.03 1603.13 207.738 1592.6 199.068C1530.61 149.055 1457.5 113.185 1371.19 90.2931C1360.32 87.8746 1348.43 84.8529 1337.58 82.4343C1282.51 72.4567 1226.81 65.9834 1168.25 69.439C1166.34 69.6217 1164.3 68.4351 1162.38 68.6177C1082.77 74.0521 1008.09 90.0642 938.588 119.372C934.897 121.097 933.123 122.649 929.433 124.373C921.911 126.462 916.447 129.739 910.982 133.005C852.834 159.868 803.015 192.837 740.498 214.599C737.702 215.557 735.033 217.875 732.223 218.824C724.701 220.913 717.194 223.003 710.693 225.685C707.897 226.644 704.065 226.999 701.27 227.958C699.354 228.14 698.601 230.275 696.685 230.458C673.254 237.492 651.456 241.616 627.868 247.291C625.952 247.474 624.931 246.881 623.015 247.063C618.303 248.194 613.592 249.335 608.865 250.467C602.238 251.78 596.49 252.318 589.863 253.642C564.985 255.986 542.165 259.516 517.019 259.132C515.103 259.314 514.223 260.09 512.307 260.263C477.596 260.781 446.702 260.935 412.616 257.939C409.679 257.528 405.72 256.524 402.782 256.104C305.335 247.365 218.763 221.735 137.856 185.227C132.861 183.63 128.761 181.257 123.78 179.659C83.185 160.036 45.4003 139.465 10.8952 113.061C9.73197 111.099 9.4633 108.371 8.3001 106.408C86.8899 158.302 181.462 196.28 286.016 218.142C295.849 219.977 304.676 221.209 314.51 223.044C330.233 225.701 345.8 226.988 362.417 228.869C388.727 231.216 411.957 231.783 439.019 231.985C465.06 231.603 489.043 230.025 514.801 226.905C518.633 226.54 520.407 224.999 524.224 224.633C533.931 225.099 542.332 222.234 551.897 221.331C578.407 216.076 603.016 210.994 629.243 203.001C642.356 199.005 655.343 193.639 668.471 189.643C682.479 184.87 694.443 178.921 707.415 173.556C717.591 169.149 726.746 164.148 735.915 159.148C803.217 127.284 859.254 88.8942 928.883 60.9551C931.678 59.9967 931.551 58.6375 934.347 57.6791C971.659 44.5031 1006.03 30.9164 1047.57 21.4827C1082.48 13.3626 1113.85 8.33596 1147.27 4.4958C1189.36 0.528535 1228.78 -1.12109 1272.45 0.961418C1330.8 5.11726 1382.67 11.9459 1435.21 25.6101C1461.04 32.8303 1485.84 39.457 1510.03 49.588C1512.08 50.7745 1514.89 49.816 1516.93 51.0026C1538.04 59.3537 1556.22 67.2942 1576.46 76.4211C1591.69 83.951 1605.02 91.6534 1620.26 99.1832C1644.86 113.412 1668.57 128.416 1690.5 144.972C1711.42 160.934 1730.41 177.07 1749.54 194.574C1792.19 234.694 1821.56 277.431 1850.2 322.324C1800.33 306.342 1744.22 295.771 1687.57 299.044L1687.6 299.074Z" fill="#D3F3FC"/><g style="mix-blend-mode:multiply"><path d="M1650.97 357.697C1615.5 302.419 1566.91 251.148 1503.97 210.871C1427.57 161.523 1334.44 128.246 1228.04 116.896C1220.25 116.248 1212.46 115.609 1204.67 114.96C1182.46 114.986 1162.92 112.695 1141.88 114.674C1139.96 114.856 1137.92 113.67 1136 113.852C1113.04 116.014 1090.83 116.04 1068.01 119.57C1054.75 122.198 1042.38 124.059 1029.12 126.686C1012.04 129.679 997.008 133.848 980.063 138.21C958.406 143.703 939.814 150.975 919.32 158.42C901.622 164.917 885.087 173.376 868.411 180.466C828.714 198.688 791.201 219.475 748.283 234.548C745.488 235.507 742.819 237.824 740.008 238.773C729.691 241.811 719.373 244.859 709.197 249.266C656.714 265.252 605.468 274.219 549.98 279.455C501.119 283.377 454.658 282.243 405.871 277.184C323.736 266.995 247.55 248.666 177.767 217.315C174.688 215.535 170.871 215.9 167.792 214.12C164.713 212.34 161.648 210.561 158.569 208.781C99.9392 182.586 48.5479 151.574 2.22519 113.188C1.06199 111.226 1.81478 109.091 0.651585 107.129C43.4995 139.637 91.6701 167.511 146.199 191.332C149.279 193.112 153.096 192.747 156.175 194.526C184.468 207.03 214.394 216.623 246.236 226.034C271.04 232.661 296.597 237.143 321.259 242.41C324.197 242.821 328.029 242.466 330.966 242.876C334.925 243.88 340.8 244.712 344.773 245.716C349.626 245.944 354.48 246.182 359.333 246.41C412.221 253.832 465.182 252.293 520.671 247.057C524.502 246.692 526.277 245.15 530.094 244.785C570.269 241.001 606.076 232.105 643.529 220.298C718.422 196.684 779.439 159.891 847.636 127.262C853.242 125.355 857.812 122.854 863.418 120.948C976.776 66.8099 1103.61 41.0541 1239.46 47.5497C1360.75 53.3511 1463.31 84.3664 1555.91 131.498C1654.79 183.548 1731.32 253.575 1785.72 333.959C1790.37 341.798 1793.99 349.045 1798.64 356.874C1806.64 369.222 1815.66 382.163 1819.96 396.245C1800.62 386.342 1779.65 379.36 1756.74 372.55C1755.72 371.957 1752.91 372.916 1751.89 372.322C1720.05 362.912 1685.81 358.557 1650.97 357.707L1650.97 357.697Z" fill="#E0F7FF"/></g></g></svg>