<svg width="721" height="270" viewBox="0 0 721 270" fill="none" xmlns="http://www.w3.org/2000/svg"><g opacity="0.7"><path d="M653.488 147.255C651.567 145.072 650.235 142.096 647.594 140.075C646.09 138.125 645.004 136.403 643.501 134.452C637.315 127.669 631.249 121.515 624.771 115.129C621.049 111.389 616.737 108.443 612.3 104.864C586.226 84.2706 556.689 70.7022 522.848 63.7037C518.61 63.0377 513.954 62.1349 509.722 61.4682C488.371 59.1494 466.968 58.4817 445.008 62.5374C444.293 62.7024 443.458 62.2378 442.744 62.4028C412.924 68.2585 385.528 78.8122 360.789 95.3144C359.484 96.2685 358.895 97.0624 357.59 98.0166C354.856 99.3007 352.962 101.049 351.068 102.792C330.494 117.685 313.39 135.06 290.895 147.77C289.888 148.331 289.001 149.518 287.988 150.076C285.254 151.36 282.525 152.643 280.208 154.159C279.202 154.721 277.771 155.046 276.764 155.608C276.05 155.773 275.877 156.794 275.162 156.959C266.672 161.203 258.646 164.028 250.026 167.648C249.311 167.813 248.893 167.581 248.178 167.746C246.456 168.468 244.735 169.194 243.007 169.917C240.57 170.804 238.425 171.294 235.988 172.185C226.704 174.315 218.261 176.908 208.731 177.783C208.016 177.948 207.725 178.345 207.009 178.505C193.91 180.2 182.236 181.566 169.189 181.605C168.056 181.538 166.506 181.238 165.373 181.166C128.064 181.197 93.977 172.94 61.4598 159.402C59.4869 158.871 57.8113 157.942 55.8439 157.41C39.4596 150.012 24.0882 142.057 9.64993 131.26C9.10675 130.399 8.8615 129.145 8.31832 128.284C40.7693 149.053 78.5315 162.7 119.219 168.456C123.035 168.895 126.437 169.097 130.253 169.536C136.338 170.109 142.292 170.053 148.675 170.229C158.748 170.215 167.562 169.504 177.807 168.464C187.634 167.196 196.62 165.459 206.196 162.933C207.626 162.603 208.215 161.814 209.64 161.485C213.335 161.294 216.361 159.614 219.93 158.794C229.678 155.247 238.717 151.859 248.214 147.054C252.962 144.651 257.59 141.619 262.344 139.216C267.39 136.416 271.601 133.157 276.224 130.125C279.84 127.655 283.038 124.953 286.243 122.25C310.015 104.655 329.184 84.5062 354.043 68.6337C355.05 68.0721 354.93 67.4472 355.937 66.8856C369.353 59.2127 381.636 51.4724 396.848 45.3575C409.622 40.1295 421.217 36.4845 433.653 33.3035C449.361 29.7002 464.182 27.2834 480.804 26.4194C503.089 25.9013 523.061 26.8944 543.651 31.0286C553.797 33.2943 563.525 35.3277 573.207 39.0116C574.042 39.4762 575.055 38.9139 575.89 39.3785C584.314 42.3661 591.605 45.2864 599.737 48.6706C605.896 51.5235 611.34 54.5368 617.499 57.3897C627.552 62.9563 637.307 68.9201 646.474 75.6777C655.223 82.2031 663.256 88.8888 671.409 96.204C689.649 113.02 703.008 131.606 716.202 151.222C696.5 145.901 674.726 143.351 653.475 147.242L653.488 147.255Z" fill="#D3F3FC"/><g style="mix-blend-mode:multiply"><path d="M642.834 176.966C626.514 152.82 605.44 131.083 579.519 115.044C548.028 95.3638 511.06 83.8356 470.227 83.0314C467.247 83.057 464.267 83.0873 461.287 83.113C452.89 84.0557 445.38 83.812 437.526 85.6113C436.811 85.7763 435.976 85.3117 435.261 85.4766C426.692 87.4409 418.295 88.3837 409.851 90.9769C404.977 92.7505 400.396 94.1323 395.522 95.9059C389.218 98.0095 383.754 100.572 377.576 103.305C369.675 106.759 363.028 110.911 355.67 115.221C349.319 118.975 343.512 123.591 337.579 127.577C323.527 137.69 310.436 148.9 295.001 157.688C293.994 158.249 293.107 159.436 292.094 159.993C288.352 161.834 284.611 163.68 280.995 166.15C261.99 175.761 243.084 182.067 222.377 186.82C204.106 190.685 186.478 192.106 167.762 191.805C136.167 190.522 106.392 185.215 78.3526 173.602C77.0946 172.906 75.6704 173.235 74.4123 172.539C73.1542 171.843 71.9017 171.146 70.6436 170.45C47.0935 160.76 26.0271 148.534 6.48908 132.676C5.94589 131.815 6.11815 130.793 5.57496 129.932C23.4895 143.21 43.1728 154.117 65.0473 162.877C66.3054 163.574 67.7296 163.244 68.9877 163.941C80.3452 168.553 92.1668 171.747 104.703 174.776C114.432 176.81 124.332 177.817 133.936 179.226C135.068 179.294 136.498 178.968 137.631 179.036C139.181 179.335 141.446 179.475 143.001 179.774C144.849 179.676 146.696 179.583 148.544 179.485C168.934 180.711 188.88 177.778 209.588 173.025C211.017 172.695 211.607 171.906 213.031 171.577C228.024 168.139 241.096 162.513 254.638 155.469C281.715 141.382 302.851 121.765 326.922 103.777C328.941 102.658 330.538 101.307 332.557 100.188C372.573 70.3355 419.179 53.0783 470.892 50.398C517.063 48.0058 557.48 58.0895 594.978 76.0637C635.111 96.0552 667.736 125.319 692.54 160.313C694.712 163.753 696.461 166.961 698.633 170.397C702.309 175.787 706.402 181.409 708.767 187.759C700.933 183.978 692.635 181.619 683.615 179.421C683.198 179.189 682.186 179.751 681.768 179.519C669.232 176.49 656.054 175.905 642.835 176.971L642.834 176.966Z" fill="#E0F7FF"/></g></g></svg>